<svg xmlns="http://www.w3.org/2000/svg" xmlns:xlink="http://www.w3.org/1999/xlink" version="1.1" x="0px" y="0px" viewBox="0 0 100 125" enable-background="new 0 0 100 100" xml:space="preserve"><path d="M69.4,40.5C69.9,29.7,61.2,21,50,21s-19.9,8.7-19.4,19.5C31,51.3,39.7,60,50,60S69,51.3,69.4,40.5z M79.2,78.8v-1.7  c0-7.7-6.2-13.9-13.9-13.9H34.8c-7.7,0-13.9,6.2-13.9,13.9v1.7C28.3,86.3,38.6,91,50,91S71.7,86.3,79.2,78.8z M50,91  C27.4,91,9,72.6,9,50S27.4,9,50,9s41,18.4,41,41S72.6,91,50,91z M50,95c24.9,0,45-20.1,45-45S74.9,5,50,5S5,25.1,5,50S25.1,95,50,95  z"/><text x="0" y="115" fill="#000000" font-size="5px" font-weight="bold" font-family="'Helvetica Neue', Helvetica, Arial-Unicode, Arial, Sans-serif">Created by Julynn B.</text><text x="0" y="120" fill="#000000" font-size="5px" font-weight="bold" font-family="'Helvetica Neue', Helvetica, Arial-Unicode, Arial, Sans-serif">from the Noun Project</text></svg>