<?xml version="1.0" encoding="UTF-8"?>
<svg xmlns="http://www.w3.org/2000/svg" xmlns:xlink="http://www.w3.org/1999/xlink" version="1.1" x="0px" y="0px" viewBox="0 0 100 125" enable-background="new 0 0 100 100" xml:space="preserve">
  <g>
    <path d="M50,74.718c4.256,0,7.719-3.463,7.719-7.719S54.256,59.28,50,59.28s-7.719,3.463-7.719,7.719S45.744,74.718,50,74.718z    M50,62.576c2.438,0,4.423,1.984,4.423,4.423S52.438,71.422,50,71.422c-2.439,0-4.424-1.984-4.424-4.423S47.561,62.576,50,62.576z"/>
    <path d="M62.574,66.999c0-6.934-5.641-12.575-12.574-12.575s-12.575,5.642-12.575,12.575S43.066,79.574,50,79.574   S62.574,73.933,62.574,66.999z M50,57.719c5.116,0,9.279,4.163,9.279,9.28c0,5.116-4.163,9.279-9.279,9.279   s-9.279-4.163-9.279-9.279C40.721,61.882,44.884,57.719,50,57.719z"/>
    <path d="M86.424,42.282H13.575c-1.578,0-2.862,1.283-2.862,2.861v4.857c0,21.662,17.624,39.286,39.287,39.286   s39.286-17.624,39.286-39.286v-4.857C89.286,43.565,88.002,42.282,86.424,42.282z M69.86,80.044V66.999   c0-10.951-8.909-19.86-19.86-19.86s-19.86,8.909-19.86,19.86v13.045c-10.117-6.692-16.131-17.863-16.131-30.043v-4.424H85.99v4.424   C85.99,62.181,79.977,73.352,69.86,80.044z M33.435,66.999c0-9.134,7.432-16.564,16.565-16.564s16.564,7.431,16.564,16.564v15.035   c-5.038,2.59-10.76,3.958-16.564,3.958c-5.889,0-11.461-1.331-16.565-3.958V66.999z"/>
    <path d="M93.71,10.713H6.29c-2.917,0-5.29,2.374-5.29,5.291v19.427c0,2.917,2.373,5.29,5.29,5.29h87.42   c2.916,0,5.29-2.373,5.29-5.29V16.004C99,13.087,96.626,10.713,93.71,10.713z M4.295,16.004c0-1.101,0.896-1.995,1.995-1.995h87.42   c1.1,0,1.994,0.895,1.994,1.995v19.427c0,1.1-0.895,1.995-1.994,1.995H6.29c-1.1,0-1.995-0.896-1.995-1.995V16.004z"/>
    <path d="M86.424,31.007c1.952,0,2.862-0.909,2.862-2.861c0-1.953-0.91-2.862-2.862-2.862s-2.861,0.909-2.861,2.862   C83.562,30.098,84.472,31.007,86.424,31.007z"/>
  </g>
</svg>
