<?xml version="1.0" encoding="UTF-8"?>
<svg xmlns="http://www.w3.org/2000/svg" xmlns:xlink="http://www.w3.org/1999/xlink" xmlns:sketch="http://www.bohemiancoding.com/sketch/ns" viewBox="0 0 56 70" version="1.1" x="0px" y="0px">
  <title>101 - Iphones (Solid)</title>
  <desc>Created with Sketch.</desc>
  <g stroke="none" stroke-width="1" fill="none" fill-rule="evenodd" sketch:type="MSPage">
    <g sketch:type="MSLayerGroup" fill="#fff">
      <path d="M41.038,0 L15.962,0 C14.88,0 14,0.88 14,1.961 L14,4 L43,4 L43,1.961 C43,0.88 42.12,0 41.038,0 L41.038,0 Z M25,3 L24,3 C23.447,3 23,2.552 23,2 C23,1.448 23.447,1 24,1 L25,1 C25.553,1 26,1.448 26,2 C26,2.552 25.553,3 25,3 L25,3 Z M33,3 L28,3 C27.447,3 27,2.552 27,2 C27,1.448 27.447,1 28,1 L33,1 C33.553,1 34,1.448 34,2 C34,2.552 33.553,3 33,3 L33,3 Z" sketch:type="MSShapeGroup"/>
      <path d="M14,47 L43,47 L43,6 L14,6 L14,47 Z M26.293,9.293 C26.684,8.902 27.316,8.902 27.707,9.293 C28.098,9.684 28.098,10.317 27.707,10.707 L24.707,13.707 C24.512,13.902 24.256,14 24,14 C23.744,14 23.488,13.902 23.293,13.707 C22.902,13.317 22.902,12.684 23.293,12.293 L26.293,9.293 L26.293,9.293 Z M17.293,13.293 L21.293,9.293 C21.684,8.902 22.316,8.902 22.707,9.293 C23.098,9.684 23.098,10.317 22.707,10.707 L18.707,14.707 C18.512,14.902 18.256,15 18,15 C17.744,15 17.488,14.902 17.293,14.707 C16.902,14.316 16.902,13.684 17.293,13.293 L17.293,13.293 Z M23,15 C23,15.26 22.89,15.52 22.71,15.71 C22.52,15.89 22.26,16 22,16 C21.74,16 21.479,15.89 21.29,15.71 C21.109,15.52 21,15.26 21,15 C21,14.74 21.109,14.48 21.29,14.29 C21.67,13.92 22.33,13.92 22.71,14.29 C22.89,14.48 23,14.74 23,15 L23,15 Z M17.293,18.293 L19.293,16.293 C19.684,15.902 20.316,15.902 20.707,16.293 C21.098,16.684 21.098,17.316 20.707,17.707 L18.707,19.707 C18.512,19.902 18.256,20 18,20 C17.744,20 17.488,19.902 17.293,19.707 C16.902,19.317 16.902,18.684 17.293,18.293 L17.293,18.293 Z M27.707,15.707 L18.707,24.707 C18.512,24.902 18.256,25 18,25 C17.744,25 17.488,24.902 17.293,24.707 C16.902,24.316 16.902,23.684 17.293,23.293 L26.293,14.293 C26.684,13.902 27.316,13.902 27.707,14.293 C28.098,14.684 28.098,15.316 27.707,15.707 L27.707,15.707 Z M29.71,13.71 C29.52,13.89 29.26,14 29,14 C28.74,14 28.479,13.89 28.29,13.71 C28.109,13.52 28,13.26 28,13 C28,12.74 28.109,12.48 28.29,12.29 C28.67,11.92 29.34,11.92 29.71,12.29 C29.89,12.48 30,12.74 30,13 C30,13.26 29.89,13.52 29.71,13.71 L29.71,13.71 Z M32.707,10.707 L31.707,11.707 C31.512,11.902 31.256,12 31,12 C30.744,12 30.488,11.902 30.293,11.707 C29.902,11.316 29.902,10.684 30.293,10.293 L31.293,9.293 C31.684,8.902 32.316,8.902 32.707,9.293 C33.098,9.684 33.098,10.317 32.707,10.707 L32.707,10.707 Z" sketch:type="MSShapeGroup"/>
      <path d="M14,49 L14,54.039 C14,55.12 14.88,56 15.962,56 L41.038,56 C42.12,56 43,55.12 43,54.039 L43,49 L14,49 L14,49 Z M28.5,55 C27.119,55 26,53.881 26,52.5 C26,51.119 27.119,50 28.5,50 C29.881,50 31,51.119 31,52.5 C31,53.881 29.881,55 28.5,55 L28.5,55 Z" sketch:type="MSShapeGroup"/>
      <path d="M45,54.039 C45,54.751 44.811,55.422 44.479,56 L54.516,56 C55.334,56 56,55.326 56,54.498 L56,51 L45,51 L45,54.039" sketch:type="MSShapeGroup"/>
      <path d="M54.516,9 L45,9 L45,10 L48,10 C48.553,10 49,10.448 49,11 C49,11.552 48.553,12 48,12 L45,12 L45,13 L56,13 L56,10.502 C56,9.674 55.334,9 54.516,9" sketch:type="MSShapeGroup"/>
      <path d="M45,15 L56,15 L56,49 L45,49 L45,15 Z" sketch:type="MSShapeGroup"/>
      <path d="M12.521,56 C12.189,55.422 12,54.751 12,54.039 L12,51 L0.844,51 L0.844,54.501 C0.844,55.328 1.517,56 2.343,56 L12.521,56" sketch:type="MSShapeGroup"/>
      <path d="M1,15 L12,15 L12,49 L1,49 L1,15 Z" sketch:type="MSShapeGroup"/>
      <path d="M12,9.063 L2.343,9.063 C1.517,9.063 0.844,9.735 0.844,10.562 L0.844,13 L12,13 L12,9.063 L12,9.063 Z M9.969,12 L9.125,12 C8.572,12 8.125,11.552 8.125,11 C8.125,10.448 8.572,10 9.125,10 L9.969,10 C10.521,10 10.969,10.448 10.969,11 C10.969,11.552 10.521,12 9.969,12 L9.969,12 Z" sketch:type="MSShapeGroup"/>
    </g>
  </g>
</svg>
