<svg xmlns="http://www.w3.org/2000/svg" xmlns:xlink="http://www.w3.org/1999/xlink" version="1.1" x="0px" y="0px" viewBox="0 0 100 100" enable-background="new 0 0 100 100" xml:space="preserve"><rect x="35.656" y="70.1" width="28.558" height="1.7"></rect><rect x="34.084" y="77.248" width="31.702" height="1.701"></rect><rect x="32.25" y="84.396" width="35.633" height="1.701"></rect><g><polygon fill="none" points="70.339,65.059 29.604,65.059 28.46,75.16 26.651,91.138 73.537,91.138 71.577,75.16  "></polygon><polygon fill="none" points="70.24,28.929 70.24,12.173 29.694,12.173 29.694,28.929 29.694,38.252 70.24,38.252  "></polygon><g><polygon fill="none" points="70.24,28.929 70.24,12.173 29.694,12.173 29.694,28.929 29.694,38.252 70.24,38.252   "></polygon><circle fill="none" cx="15.056" cy="35.562" r="2.633"></circle><polygon fill="none" points="70.339,65.059 29.604,65.059 28.46,75.16 26.651,91.138 73.537,91.138 71.577,75.16   "></polygon><g><circle fill="none" cx="15.056" cy="35.562" r="2.633"></circle><polygon fill="none" points="70.24,28.929 70.24,12.173 29.694,12.173 29.694,28.929 29.694,38.252 70.24,38.252    "></polygon><polygon fill="none" points="70.339,65.059 29.604,65.059 28.46,75.16 26.651,91.138 73.537,91.138 71.577,75.16    "></polygon><path d="M88.055,28.929H71.941V10.472H27.993v18.457H11.88c-2.067,0-3.743,1.676-3.743,3.743v38.746     c0,2.066,1.676,3.743,3.743,3.743h14.868l-2.001,17.679H75.46L73.291,75.16h14.764c2.067,0,3.743-1.677,3.743-3.743V32.671     C91.798,30.604,90.122,28.929,88.055,28.929z M15.056,38.195c-1.454,0-2.633-1.179-2.633-2.633s1.179-2.633,2.633-2.633     s2.633,1.179,2.633,2.633S16.51,38.195,15.056,38.195z M29.694,28.929V12.173H70.24v16.755v9.323H29.694V28.929z M73.537,91.138     H26.651L28.46,75.16l1.144-10.102h40.735l1.238,10.102L73.537,91.138z"></path></g></g></g></svg>