<svg xmlns="http://www.w3.org/2000/svg" xmlns:xlink="http://www.w3.org/1999/xlink" xmlns:sketch="http://www.bohemiancoding.com/sketch/ns" viewBox="0 0 44 75" version="1.1" x="0px" y="0px"><title>115 - iPad Mini (Solid)</title><desc>Created with Sketch.</desc><g stroke="none" stroke-width="1" fill="none" fill-rule="evenodd" sketch:type="MSPage"><g sketch:type="MSLayerGroup" fill="#000000"><path d="M23,3 L22,3 C21.447,3 21,3.448 21,4 C21,4.552 21.447,5 22,5 L23,5 C23.553,5 24,4.552 24,4 C24,3.448 23.553,3 23,3" sketch:type="MSShapeGroup"/><path d="M40.102,0 L3.898,0 C1.749,0 0,1.777 0,3.961 L0,56.039 C0,58.223 1.749,60 3.898,60 L40.102,60 C42.251,60 44,58.223 44,56.039 L44,3.961 C44,1.777 42.251,0 40.102,0 L40.102,0 Z M42,56.039 C42,57.12 41.148,58 40.102,58 L3.898,58 C2.852,58 2,57.12 2,56.039 L2,3.961 C2,2.88 2.852,2 3.898,2 L40.102,2 C41.148,2 42,2.88 42,3.961 L42,56.039 L42,56.039 Z" sketch:type="MSShapeGroup"/><path d="M26,54 C26,51.794 24.206,50 22,50 C19.794,50 18,51.794 18,54 C18,56.206 19.794,58 22,58 C24.206,58 26,56.206 26,54 L26,54 Z M22,56 C20.898,56 20,55.103 20,54 C20,52.897 20.898,52 22,52 C23.102,52 24,52.897 24,54 C24,55.103 23.102,56 22,56 L22,56 Z" sketch:type="MSShapeGroup"/><path d="M3,50 L41,50 L41,6 L3,6 L3,50 Z M16.293,10.293 C16.684,9.902 17.316,9.902 17.707,10.293 C18.098,10.684 18.098,11.316 17.707,11.707 L14.707,14.707 C14.512,14.902 14.256,15 14,15 C13.744,15 13.488,14.902 13.293,14.707 C12.902,14.316 12.902,13.684 13.293,13.293 L16.293,10.293 L16.293,10.293 Z M7.293,14.293 L11.293,10.293 C11.684,9.902 12.316,9.902 12.707,10.293 C13.098,10.684 13.098,11.316 12.707,11.707 L8.707,15.707 C8.512,15.902 8.256,16 8,16 C7.744,16 7.488,15.902 7.293,15.707 C6.902,15.317 6.902,14.684 7.293,14.293 L7.293,14.293 Z M13,16 C13,16.27 12.89,16.52 12.71,16.71 C12.519,16.89 12.26,17 12,17 C11.74,17 11.479,16.9 11.29,16.71 C11.109,16.52 11,16.27 11,16 C11,15.74 11.109,15.48 11.29,15.29 C11.68,14.92 12.33,14.92 12.71,15.29 C12.89,15.48 13,15.74 13,16 L13,16 Z M7.293,19.293 L9.293,17.293 C9.684,16.902 10.316,16.902 10.707,17.293 C11.098,17.684 11.098,18.317 10.707,18.707 L8.707,20.707 C8.512,20.902 8.256,21 8,21 C7.744,21 7.488,20.902 7.293,20.707 C6.902,20.316 6.902,19.684 7.293,19.293 L7.293,19.293 Z M17.707,16.707 L8.707,25.707 C8.512,25.902 8.256,26 8,26 C7.744,26 7.488,25.902 7.293,25.707 C6.902,25.316 6.902,24.684 7.293,24.293 L16.293,15.293 C16.684,14.902 17.316,14.902 17.707,15.293 C18.098,15.684 18.098,16.316 17.707,16.707 L17.707,16.707 Z M19.71,14.71 C19.519,14.89 19.26,15 19,15 C18.729,15 18.479,14.89 18.29,14.71 C18.109,14.52 18,14.26 18,14 C18,13.74 18.109,13.48 18.29,13.29 C18.66,12.92 19.33,12.92 19.71,13.29 C19.899,13.48 20,13.74 20,14 C20,14.26 19.899,14.52 19.71,14.71 L19.71,14.71 Z M22.707,11.707 L21.707,12.707 C21.512,12.902 21.256,13 21,13 C20.744,13 20.488,12.902 20.293,12.707 C19.902,12.317 19.902,11.684 20.293,11.293 L21.293,10.293 C21.684,9.902 22.316,9.902 22.707,10.293 C23.098,10.684 23.098,11.316 22.707,11.707 L22.707,11.707 Z" sketch:type="MSShapeGroup"/></g></g><text x="0" y="75" fill="#000000" font-size="5px" font-weight="bold" font-family="'Helvetica Neue', Helvetica, Arial-Unicode, Arial, Sans-serif">Created by Oliviu Stoian</text><text x="0" y="80" fill="#000000" font-size="5px" font-weight="bold" font-family="'Helvetica Neue', Helvetica, Arial-Unicode, Arial, Sans-serif">from the Noun Project</text></svg>